<?xml version="1.0" standalone="no"?>
<!DOCTYPE svg PUBLIC "-//W3C//DTD SVG 20010904//EN"
 "http://www.w3.org/TR/2001/REC-SVG-20010904/DTD/svg10.dtd">
<svg version="1.0" xmlns="http://www.w3.org/2000/svg"
 width="4425.000000pt" height="517.000000pt" viewBox="0 0 4425.000000 517.000000"
 preserveAspectRatio="xMidYMid meet">

<g transform="translate(0.000000,517.000000) scale(0.100000,-0.100000)"
fill="#F8F8F8" stroke="none">
<path d="M36643 3978 c-69 -36 -233 -147 -233 -157 0 -13 359 -235 721 -445
l66 -38 5 -450 c4 -303 9 -453 16 -460 8 -8 54 13 164 74 l153 86 -2 278 c-1
154 -5 365 -8 471 l-7 192 -367 219 c-201 121 -385 229 -408 240 l-41 21 -59
-31z"/>
<path d="M2285 3973 c-22 -2 -88 -12 -147 -23 -532 -100 -895 -449 -1008 -970
-60 -275 -50 -615 25 -875 14 -47 26 -102 26 -123 1 -23 3 -29 6 -14 4 18 14
3 48 -68 232 -475 702 -724 1315 -696 302 14 541 78 820 222 193 99 259 167
280 293 8 46 10 180 8 402 -3 327 -3 335 -27 387 -27 59 -82 112 -138 132 -29
11 -137 15 -466 17 l-428 4 -53 -24 c-32 -15 -65 -40 -82 -63 -25 -32 -29 -48
-32 -113 -3 -66 -1 -80 20 -110 60 -89 114 -101 451 -101 l257 0 0 -216 0
-215 -102 -48 c-229 -108 -403 -146 -623 -138 -162 6 -234 22 -355 79 -71 34
-100 56 -177 133 -79 80 -98 105 -142 196 -79 162 -102 271 -108 509 -4 154
-2 215 11 290 22 124 67 258 119 349 52 93 169 213 257 264 215 125 530 138
742 31 92 -46 170 -124 274 -274 88 -127 133 -165 209 -179 141 -26 280 63
304 194 14 73 -2 148 -53 250 -127 256 -413 435 -779 489 -96 15 -338 19 -452
9z"/>
<path d="M7783 3966 c-92 -29 -170 -102 -223 -206 -31 -62 -832 -2088 -865
-2189 -25 -76 -24 -166 2 -216 25 -47 84 -106 131 -129 76 -39 195 -29 260 20
42 33 100 154 196 409 41 110 77 208 81 218 7 16 42 17 549 17 l542 0 68 -182
c37 -101 95 -238 127 -305 64 -134 100 -172 183 -194 128 -35 285 51 327 178
16 48 7 132 -24 223 -14 41 -185 469 -380 950 -195 481 -382 945 -416 1030
-96 241 -172 336 -304 375 -61 18 -196 19 -254 1z m331 -1135 l194 -531 -394
0 c-217 0 -394 3 -394 7 0 5 87 250 192 545 115 318 196 531 200 523 4 -7 95
-252 202 -544z"/>
<path d="M9595 3965 c-22 -8 -61 -36 -87 -63 -81 -85 -78 -46 -78 -941 0 -834
3 -896 50 -1081 27 -108 104 -268 167 -345 94 -115 246 -214 408 -264 256 -80
674 -91 930 -26 230 58 421 191 542 377 89 136 135 301 153 554 13 188 13
1480 -1 1564 -18 113 -78 194 -168 226 -46 17 -142 18 -193 2 -56 -16 -121
-78 -149 -140 l-24 -53 -6 -820 c-5 -699 -8 -830 -21 -885 -64 -262 -167 -369
-398 -416 -155 -31 -377 -7 -494 53 -43 22 -121 98 -155 151 -42 67 -78 202
-90 339 -6 68 -11 424 -11 834 0 813 2 785 -76 870 -30 31 -62 53 -91 63 -57
20 -154 20 -208 1z"/>
<path d="M21170 3969 c-575 -74 -964 -395 -1105 -912 -38 -139 -55 -283 -55
-467 0 -252 36 -449 118 -638 230 -534 765 -808 1448 -741 236 23 439 82 669
194 165 81 250 144 290 216 l30 54 3 370 c2 249 0 387 -8 422 -16 74 -60 129
-128 161 l-57 27 -420 3 c-297 2 -432 0 -461 -8 -125 -35 -189 -176 -131 -290
18 -37 33 -51 82 -75 l60 -30 283 -3 282 -4 0 -217 0 -218 -92 -43 c-128 -58
-275 -106 -388 -126 -130 -22 -355 -15 -458 15 -337 98 -526 370 -564 813 -22
254 16 480 114 678 44 90 64 117 137 191 148 147 311 211 546 212 150 1 220
-14 334 -69 89 -44 161 -114 251 -243 89 -130 128 -171 179 -194 59 -26 153
-26 212 0 54 24 122 96 139 148 18 53 8 158 -21 230 -115 284 -440 496 -834
544 -103 12 -358 13 -455 0z"/>
<path d="M30920 3965 c-734 -101 -1157 -642 -1127 -1440 10 -248 51 -431 137
-612 258 -543 823 -793 1548 -687 185 27 391 97 593 201 196 101 259 168 279
300 17 107 8 715 -11 768 -19 54 -94 130 -144 146 -30 10 -152 14 -468 16
l-428 4 -53 -24 c-76 -35 -109 -82 -114 -163 -5 -81 1 -105 38 -148 56 -63 90
-69 408 -74 l282 -4 0 -214 0 -214 -67 -34 c-190 -95 -373 -145 -565 -153
-286 -12 -461 48 -630 217 -74 75 -93 102 -137 191 -79 162 -102 271 -108 509
-4 154 -2 215 11 290 22 124 67 257 119 350 52 92 167 211 257 263 215 124
525 139 739 34 89 -44 164 -116 256 -249 100 -143 110 -155 167 -184 52 -26
153 -33 205 -13 82 31 147 105 162 187 28 148 -95 376 -281 520 -131 101 -350
189 -539 216 -129 19 -393 20 -529 1z"/>
<path d="M38511 3954 c-60 -30 -102 -81 -126 -154 -14 -43 -15 -139 -12 -891
4 -928 3 -908 68 -1104 45 -136 101 -227 199 -325 190 -191 456 -274 885 -274
281 0 422 27 600 114 205 101 379 304 439 511 49 168 49 163 53 1070 4 846 4
856 -17 911 -22 60 -72 118 -123 145 -48 25 -176 30 -231 9 -56 -21 -113 -77
-140 -135 -21 -45 -21 -59 -27 -866 -6 -879 -6 -878 -59 -1017 -76 -199 -221
-293 -475 -305 -207 -10 -357 32 -461 129 -77 72 -117 148 -147 281 -19 88
-21 131 -26 912 l-6 820 -24 48 c-28 57 -100 123 -150 137 -70 19 -162 12
-220 -16z"/>
<path d="M41305 3939 c-91 -14 -161 -53 -196 -107 -16 -26 -34 -62 -39 -82 -6
-22 -10 -459 -10 -1171 0 -1265 -4 -1196 68 -1279 54 -64 103 -85 197 -85 59
0 90 5 119 19 53 27 104 80 130 135 20 44 21 62 24 487 l3 442 362 5 c380 5
452 12 605 58 246 76 426 247 497 472 32 100 49 252 41 370 -23 339 -200 587
-486 682 -150 50 -235 57 -765 60 -273 2 -516 0 -550 -6z m952 -432 c139 -37
205 -87 257 -196 29 -61 31 -74 31 -176 0 -60 -6 -128 -12 -151 -34 -108 -126
-190 -265 -232 -79 -24 -97 -26 -375 -30 l-293 -4 0 407 0 407 298 -5 c230 -3
311 -8 359 -20z"/>
<path d="M4401 3929 c-119 -21 -197 -92 -221 -203 -8 -36 -10 -386 -8 -1186
l3 -1135 23 -50 c28 -61 64 -100 117 -128 32 -17 58 -21 125 -21 99 0 144 18
203 83 65 73 67 87 67 623 l0 478 153 0 c230 0 321 -31 437 -149 84 -85 165
-206 386 -575 249 -417 292 -460 454 -460 73 0 92 4 137 27 76 39 124 109 125
181 1 62 -28 144 -108 306 -155 311 -362 575 -552 702 l-54 36 59 16 c325 90
521 258 583 501 73 287 -2 576 -195 753 -113 103 -250 167 -415 193 -95 14
-1240 22 -1319 8z m1149 -433 c167 -53 258 -188 248 -367 -8 -134 -72 -227
-191 -278 -108 -47 -172 -53 -544 -58 l-353 -5 0 367 0 366 393 -3 c339 -4
399 -7 447 -22z"/>
<path d="M12502 3930 c-117 -17 -198 -91 -222 -203 -7 -36 -10 -391 -8 -1167
3 -1107 3 -1115 24 -1160 29 -63 91 -116 159 -135 49 -15 126 -16 683 -12 676
5 692 6 869 62 110 35 196 88 283 175 87 88 140 173 177 285 34 105 44 303 19
408 -31 131 -100 244 -204 330 -54 45 -218 136 -272 150 -24 6 -22 9 30 38
160 92 254 201 304 351 54 161 41 343 -35 498 -34 68 -59 102 -128 170 -138
137 -267 189 -522 209 -150 12 -1075 13 -1157 1z m993 -421 c179 -25 269 -73
313 -167 23 -49 27 -70 27 -147 0 -76 -4 -99 -26 -145 -35 -74 -82 -126 -142
-156 -92 -47 -157 -55 -514 -61 l-333 -6 0 347 0 346 299 0 c165 0 334 -5 376
-11z m147 -1097 c189 -52 272 -130 299 -285 32 -175 -46 -335 -195 -403 -120
-55 -143 -57 -548 -62 l-378 -3 0 391 0 392 373 -4 c339 -4 379 -7 449 -26z"/>
<path d="M15201 3929 c-119 -20 -198 -93 -221 -203 -7 -35 -10 -405 -8 -1166
3 -1107 3 -1115 24 -1160 11 -25 39 -62 62 -82 78 -70 50 -68 971 -68 546 0
839 4 864 11 125 34 183 187 119 310 -22 43 -38 59 -81 81 l-53 28 -679 0
-679 0 0 380 0 379 608 3 607 3 46 23 c28 14 58 39 75 64 26 37 29 50 29 118
0 65 -4 82 -25 113 -14 20 -47 49 -75 64 l-50 28 -607 3 -608 3 0 324 0 324
658 3 c646 3 658 3 703 24 153 71 155 296 4 373 l-49 26 -791 2 c-437 0 -814
-3 -844 -8z"/>
<path d="M17701 3929 c-76 -13 -139 -47 -173 -93 -61 -84 -59 -33 -56 -1292
l3 -1149 24 -45 c56 -107 118 -144 241 -144 100 0 147 19 202 84 67 77 68 87
68 621 l0 479 153 0 c231 0 317 -30 437 -151 85 -85 132 -154 345 -509 207
-344 246 -403 294 -448 65 -60 106 -76 201 -77 77 0 90 3 140 31 77 43 120
108 120 180 0 69 -40 179 -124 339 -150 287 -343 532 -516 653 l-71 50 58 16
c32 9 94 30 138 47 289 114 435 295 466 577 31 289 -82 552 -300 696 -132 88
-242 120 -457 136 -170 12 -1118 11 -1193 -1z m1157 -436 c99 -33 167 -93 211
-183 23 -48 26 -67 26 -156 0 -92 -3 -105 -30 -159 -56 -109 -172 -170 -370
-194 -49 -6 -224 -11 -387 -11 l-298 0 0 366 0 365 393 -3 c367 -4 396 -5 455
-25z"/>
<path d="M23320 3929 c-78 -13 -137 -45 -171 -92 -62 -85 -60 -34 -57 -1268 3
-1119 3 -1124 24 -1169 27 -57 67 -97 124 -124 44 -21 55 -21 888 -24 573 -2
856 1 883 8 146 40 198 241 91 353 -62 65 -19 62 -777 67 l-690 5 -3 378 -2
377 584 0 c388 0 602 4 636 11 122 26 193 161 145 277 -20 47 -50 78 -100 105
-40 22 -47 22 -652 25 l-613 3 0 324 0 325 638 0 c398 0 654 4 682 11 105 24
162 95 163 205 1 84 -36 146 -108 183 l-50 26 -790 2 c-448 0 -814 -3 -845 -8z"/>
<path d="M25825 3930 c-102 -16 -161 -55 -203 -133 l-27 -52 -3 -1154 c-3
-1282 -6 -1218 64 -1299 56 -66 103 -86 204 -87 74 0 91 3 130 27 58 34 84 62
112 123 23 50 23 53 26 543 l3 492 152 0 c222 0 311 -28 421 -134 85 -82 159
-190 381 -559 276 -459 307 -491 475 -492 77 0 90 3 140 31 75 42 112 97 118
172 3 48 -2 72 -32 152 -126 325 -402 708 -618 858 l-58 39 103 33 c308 98
474 251 538 499 28 107 28 296 0 404 -50 192 -176 351 -349 440 -118 61 -209
84 -385 97 -162 11 -1117 11 -1192 0z m1144 -434 c70 -23 117 -53 165 -106 52
-58 77 -118 83 -204 14 -180 -73 -303 -252 -355 -112 -33 -220 -41 -537 -41
l-298 0 0 366 0 366 393 -4 c340 -4 399 -7 446 -22z"/>
<path d="M33097 3930 c-72 -13 -135 -48 -168 -93 -62 -85 -60 -32 -57 -1288
l3 -1144 24 -52 c47 -105 151 -162 273 -149 72 7 125 33 168 82 67 76 64 58
70 609 l5 500 145 -2 c240 -4 319 -31 435 -147 88 -89 165 -203 391 -581 210
-351 266 -421 369 -450 128 -38 261 9 321 111 50 84 32 171 -80 393 -150 300
-371 583 -545 698 -35 24 -57 45 -50 47 8 2 55 16 104 31 289 87 473 259 531
500 24 96 24 296 1 390 -55 221 -216 402 -431 486 -151 58 -183 61 -851 64
-335 2 -631 0 -658 -5z m1104 -424 c131 -24 216 -86 268 -195 23 -49 26 -69
26 -157 0 -92 -3 -105 -30 -159 -56 -109 -172 -170 -370 -194 -49 -6 -224 -11
-387 -11 l-298 0 0 363 c0 200 3 367 8 372 12 13 697 -4 783 -19z"/>
<path d="M36200 3714 c-163 -87 -518 -297 -583 -345 -98 -72 -110 -101 -111
-266 -1 -72 2 -135 7 -139 10 -10 124 49 482 252 160 90 296 164 303 164 23 0
509 -272 701 -393 67 -42 96 -55 101 -47 21 34 22 325 2 357 -23 35 -769 463
-806 463 -6 0 -49 -21 -96 -46z"/>
<path d="M37595 3408 c-5 -18 -11 -226 -14 -462 l-6 -430 -280 -158 c-273
-155 -452 -266 -476 -295 -10 -11 -9 -17 2 -29 19 -18 246 -142 276 -150 15
-4 123 53 407 216 l386 222 0 493 0 493 -72 45 c-105 64 -153 87 -186 87 -25
0 -31 -5 -37 -32z"/>
<path d="M36150 3227 c-69 -40 -245 -144 -392 -232 l-268 -159 0 -477 0 -477
138 -85 c134 -83 137 -85 140 -60 2 14 9 221 15 461 l12 435 115 69 c63 38
254 148 424 245 l310 176 -175 88 c-96 48 -178 88 -184 88 -5 1 -66 -32 -135
-72z"/>
<path d="M36049 2697 c-57 -35 -121 -74 -141 -88 l-38 -24 3 -470 2 -469 165
-94 c170 -97 623 -358 651 -375 19 -12 208 110 240 155 l21 29 -23 25 c-40 42
-213 155 -459 299 -129 75 -236 138 -238 140 -1 1 -7 155 -12 341 -9 312 -23
533 -36 577 -3 9 -11 17 -18 17 -8 0 -60 -28 -117 -63z"/>
<path d="M36302 2203 c-4 -10 -7 -70 -6 -134 2 -182 21 -210 244 -344 127 -77
333 -191 460 -255 l104 -52 108 54 c162 83 479 266 566 328 113 81 126 109
127 272 0 81 -4 131 -11 138 -15 15 -95 -26 -389 -195 -121 -69 -262 -147
-313 -172 l-93 -47 -102 53 c-56 29 -199 108 -317 176 -199 113 -352 195 -365
195 -3 0 -9 -8 -13 -17z"/>
</g>
</svg>
