<?xml version="1.0" standalone="no"?>
<!DOCTYPE svg PUBLIC "-//W3C//DTD SVG 20010904//EN"
 "http://www.w3.org/TR/2001/REC-SVG-20010904/DTD/svg10.dtd">
<svg version="1.0" xmlns="http://www.w3.org/2000/svg"
 width="3458.000000pt" height="900.000000pt" viewBox="0 0 3458.000000 900.000000"
 preserveAspectRatio="xMidYMid meet">

<g transform="translate(0.000000,900.000000) scale(0.100000,-0.100000)"
fill="#000000" stroke="none">
<path d="M2230 7875 c-608 -84 -995 -456 -1107 -1065 -24 -131 -24 -486 -1
-615 39 -206 113 -395 215 -546 259 -382 724 -574 1284 -531 269 21 472 78
724 202 157 78 242 139 279 202 41 70 48 155 44 516 l-3 327 -30 60 c-37 74
-86 113 -162 131 -76 18 -842 20 -894 3 -90 -31 -143 -101 -143 -193 1 -94 38
-149 124 -183 38 -14 90 -17 323 -21 l277 -4 0 -217 0 -218 -87 -40 c-206 -95
-346 -132 -535 -140 -153 -7 -248 5 -359 42 -113 39 -169 75 -264 170 -96 96
-151 183 -194 313 -53 157 -77 378 -60 564 38 440 239 718 584 809 106 29 318
31 415 5 164 -44 277 -134 402 -322 37 -55 78 -110 90 -121 46 -42 104 -63
173 -63 106 0 182 43 229 131 25 46 28 58 24 133 -3 76 -7 92 -52 181 -129
260 -437 449 -806 495 -113 14 -373 11 -490 -5z"/>
<path d="M7793 7876 c-95 -31 -171 -102 -226 -213 -64 -126 -865 -2175 -877
-2242 -16 -91 -1 -146 57 -212 66 -73 111 -94 203 -93 96 0 145 24 188 91 41
63 59 107 157 368 l83 220 544 3 543 2 69 -182 c73 -194 151 -368 186 -418 12
-16 42 -42 68 -57 62 -37 174 -39 239 -5 126 66 172 172 139 316 -9 39 -159
421 -333 850 -173 430 -366 908 -428 1062 -147 367 -187 429 -315 494 -37 19
-64 24 -150 27 -70 2 -119 -2 -147 -11z m326 -1123 l197 -538 -390 -3 c-214
-1 -391 0 -394 3 -3 2 82 247 189 544 106 297 195 538 197 536 3 -2 93 -246
201 -542z"/>
<path d="M9595 7871 c-53 -24 -103 -75 -129 -131 -21 -45 -21 -54 -21 -895 0
-780 1 -857 18 -940 28 -137 55 -221 102 -315 83 -163 190 -267 360 -350 186
-91 363 -124 670 -124 354 0 546 54 752 210 219 167 317 386 343 769 13 195
13 1458 0 1549 -17 117 -77 199 -169 232 -54 20 -168 17 -216 -5 -53 -24 -96
-68 -126 -128 l-24 -48 -6 -825 c-5 -707 -8 -834 -22 -890 -57 -234 -141 -337
-322 -397 -72 -24 -95 -27 -230 -27 -216 -1 -320 31 -422 127 -67 63 -96 114
-127 219 -40 140 -46 264 -46 1034 0 830 3 793 -84 880 -33 34 -65 56 -91 63
-62 17 -164 13 -210 -8z"/>
<path d="M21205 7884 c-215 -30 -359 -71 -511 -145 -340 -168 -554 -459 -646
-879 -20 -93 -22 -133 -23 -350 0 -264 8 -333 62 -510 96 -321 320 -592 609
-738 287 -145 709 -188 1088 -111 249 50 569 190 693 303 101 91 98 76 101
501 3 251 0 387 -8 422 -16 74 -60 129 -128 161 l-57 27 -422 3 c-285 2 -435
0 -462 -8 -121 -32 -185 -178 -128 -290 46 -93 117 -110 455 -110 l252 0 -2
-217 -3 -218 -85 -41 c-217 -106 -412 -149 -635 -141 -198 8 -314 45 -451 143
-224 159 -353 510 -330 900 26 461 232 761 586 855 67 18 112 23 215 23 278 0
421 -77 585 -313 126 -183 164 -210 284 -211 86 0 140 24 195 87 51 58 65 99
59 182 -17 229 -241 473 -543 590 -166 65 -267 82 -510 86 -115 2 -223 1 -240
-1z"/>
<path d="M4407 7840 c-72 -13 -135 -48 -168 -93 -62 -85 -60 -32 -57 -1288 l3
-1144 24 -52 c90 -200 385 -203 483 -5 23 47 23 50 28 547 l5 500 150 -3 c233
-4 314 -32 430 -147 88 -88 165 -202 391 -580 211 -353 266 -421 368 -450 169
-49 346 54 346 200 0 72 -22 135 -106 305 -154 310 -364 577 -554 705 -30 20
-46 37 -38 39 7 2 53 16 103 31 202 61 357 165 445 300 139 214 143 557 8 782
-77 130 -214 243 -358 297 -151 56 -182 58 -845 61 -335 2 -631 0 -658 -5z
m1106 -425 c131 -23 217 -88 270 -202 18 -40 22 -66 22 -149 0 -92 -3 -105
-30 -159 -56 -109 -172 -170 -370 -194 -49 -6 -224 -11 -387 -11 l-298 0 0
363 c0 200 3 367 8 372 12 13 697 -4 785 -20z"/>
<path d="M12510 7840 c-103 -18 -161 -59 -199 -139 l-26 -56 0 -1140 c0 -1262
-4 -1184 67 -1261 75 -82 50 -79 763 -79 687 0 731 3 904 61 217 72 383 239
457 459 35 103 44 290 21 402 -28 132 -99 248 -205 336 -54 46 -219 136 -272
150 -23 6 -18 11 56 57 151 92 251 220 291 371 22 86 22 253 -1 339 -30 112
-81 196 -175 290 -138 137 -268 189 -518 210 -145 12 -1096 12 -1163 0z m1023
-425 c168 -29 243 -72 286 -164 22 -47 26 -70 26 -146 0 -78 -4 -97 -27 -145
-58 -118 -125 -167 -268 -196 -68 -13 -145 -17 -405 -18 l-320 -1 -3 335 c-1
184 0 341 3 349 8 20 579 9 708 -14z m122 -1093 c106 -30 161 -58 211 -107 61
-61 87 -137 87 -250 0 -195 -88 -305 -293 -366 -71 -21 -97 -23 -457 -27
l-383 -4 0 392 0 392 378 -4 c350 -4 383 -6 457 -26z"/>
<path d="M15207 7840 c-71 -12 -135 -48 -168 -93 -62 -86 -60 -34 -57 -1268 3
-1058 4 -1126 21 -1164 24 -54 73 -103 127 -129 45 -21 52 -21 889 -24 934 -3
905 -5 969 61 95 99 77 268 -36 335 l-47 27 -690 5 -690 5 -3 377 -2 377 612
3 c680 3 653 1 715 71 41 47 57 98 50 164 -10 94 -68 154 -166 173 -33 6 -283
10 -632 10 l-579 0 0 325 0 325 629 0 c384 0 649 4 682 10 111 21 172 94 172
205 0 111 -61 184 -172 205 -64 12 -1551 12 -1624 0z"/>
<path d="M17710 7840 c-100 -18 -157 -56 -198 -133 l-27 -52 0 -1175 0 -1175
24 -45 c48 -92 111 -136 209 -146 116 -13 217 40 270 140 l27 51 5 500 5 500
150 -3 c231 -4 319 -34 434 -151 86 -87 133 -156 346 -511 205 -340 241 -396
293 -446 63 -62 106 -78 202 -79 77 0 90 3 140 31 115 65 145 160 95 302 -52
147 -193 402 -301 545 -132 174 -217 262 -333 339 -35 24 -50 39 -40 42 7 2
54 16 104 31 289 87 462 249 527 494 28 108 28 296 -1 404 -54 203 -181 360
-365 451 -98 49 -205 74 -360 86 -152 12 -1139 11 -1206 0z m920 -410 c241
-12 322 -40 404 -137 104 -123 99 -348 -8 -456 -111 -110 -249 -137 -713 -137
l-293 0 0 363 c0 200 3 367 7 370 9 10 397 8 603 -3z"/>
<path d="M23330 7840 c-100 -18 -157 -56 -198 -133 l-27 -52 0 -1150 c0 -1148
0 -1150 21 -1195 27 -57 67 -97 124 -124 44 -21 55 -21 885 -24 638 -2 851 0
884 9 144 40 199 231 99 345 -64 73 -16 68 -783 74 l-690 5 -3 377 -2 377 612
3 c606 3 613 3 653 25 74 39 115 105 115 183 0 78 -41 144 -115 183 -40 22
-47 22 -652 25 l-613 3 0 324 0 324 663 3 662 3 49 24 c73 36 106 94 106 186
0 92 -33 150 -106 186 l-49 24 -795 1 c-437 1 -815 -2 -840 -6z"/>
<path d="M25827 7840 c-111 -20 -184 -81 -215 -180 -16 -51 -17 -145 -17
-1180 0 -1258 -4 -1191 71 -1278 46 -54 98 -81 172 -88 120 -13 227 45 273
148 l24 53 3 498 3 497 77 0 c131 -1 276 -18 334 -40 83 -31 159 -91 233 -183
76 -94 107 -144 346 -540 179 -296 233 -368 307 -406 121 -62 286 -23 360 85
56 83 37 182 -77 409 -148 293 -357 561 -535 686 -40 29 -63 50 -55 53 8 2 52
16 99 30 293 88 469 252 531 494 27 105 26 300 -1 406 -55 217 -209 390 -422
475 -150 60 -182 63 -853 66 -335 2 -631 0 -658 -5z m923 -410 c236 -12 290
-28 376 -114 52 -53 65 -73 83 -130 25 -80 26 -141 6 -219 -26 -101 -78 -159
-186 -206 -104 -46 -165 -53 -536 -58 l-353 -5 0 371 0 371 218 0 c119 0 296
-5 392 -10z"/>
<path d="M26820 4104 c-81 -45 -220 -142 -220 -154 0 -12 183 -127 511 -321
l277 -163 4 -445 c2 -245 7 -452 11 -458 10 -15 34 -4 211 95 l118 67 -6 240
c-3 132 -9 342 -13 466 l-6 226 -376 225 c-333 201 -433 258 -443 258 -2 0
-32 -16 -68 -36z"/>
<path d="M21200 4084 c-399 -49 -720 -217 -921 -483 -112 -149 -201 -368 -240
-590 -24 -137 -29 -425 -10 -561 84 -584 438 -978 990 -1101 146 -32 347 -44
518 -31 275 22 459 74 718 202 179 88 258 149 297 228 23 47 23 48 23 438 l0
390 -30 59 c-36 70 -90 109 -174 125 -31 6 -224 10 -455 10 -446 0 -445 0
-513 -70 -42 -43 -56 -88 -51 -159 5 -75 34 -116 107 -150 56 -26 58 -26 339
-29 l282 -4 0 -214 0 -215 -102 -49 c-222 -106 -406 -146 -627 -137 -231 9
-385 70 -522 207 -138 138 -218 319 -248 565 -52 424 67 810 307 995 140 108
277 152 482 153 156 1 225 -13 338 -70 89 -44 156 -108 242 -232 36 -51 77
-110 92 -131 61 -86 214 -118 317 -66 95 49 148 141 138 244 -18 203 -205 432
-449 549 -201 97 -326 124 -603 128 -115 2 -226 1 -245 -1z"/>
<path d="M28695 4072 c-53 -25 -103 -76 -129 -132 -21 -44 -21 -58 -24 -830
-3 -838 0 -919 44 -1104 30 -122 103 -277 171 -361 136 -167 360 -276 653
-316 143 -19 463 -17 584 5 234 42 394 122 537 267 166 168 236 359 260 701
14 215 7 1551 -9 1598 -22 65 -69 127 -117 156 -56 32 -163 43 -235 24 -55
-14 -138 -95 -160 -155 -11 -33 -15 -185 -21 -860 -6 -861 -6 -853 -55 -996
-79 -229 -267 -333 -574 -316 -257 14 -407 108 -478 298 -54 147 -55 162 -61
1034 -6 794 -6 811 -27 855 -24 51 -71 103 -118 127 -49 26 -190 29 -241 5z"/>
<path d="M23310 4036 c-99 -22 -151 -63 -192 -151 l-23 -50 0 -1155 0 -1155
33 -67 c39 -81 90 -122 170 -139 145 -30 270 36 323 171 11 28 14 138 17 529
l3 494 155 -7 c232 -11 297 -32 409 -138 92 -85 153 -174 384 -557 216 -359
248 -404 317 -452 123 -84 310 -51 391 70 54 80 39 161 -71 386 -153 311 -378
601 -556 716 -27 18 -47 36 -43 39 5 4 44 17 88 29 287 81 477 253 542 492 25
90 25 328 0 419 -55 200 -181 352 -372 445 -111 55 -182 71 -355 85 -194 14
-1150 12 -1220 -4z m1100 -416 c196 -31 313 -165 313 -355 -1 -188 -96 -292
-313 -341 -60 -13 -145 -17 -422 -21 l-348 -5 0 373 0 372 353 -6 c193 -4 381
-11 417 -17z"/>
<path d="M31460 4040 c-106 -18 -172 -66 -212 -154 l-23 -51 0 -1150 c0 -1104
1 -1152 19 -1199 52 -136 189 -203 330 -162 44 13 70 29 105 64 85 85 85 84
89 578 l3 432 357 5 c265 4 379 10 442 21 222 42 365 110 486 230 164 164 223
342 211 635 -9 220 -69 380 -195 512 -144 153 -302 217 -595 239 -151 11 -949
12 -1017 0z m935 -429 c50 -10 113 -30 140 -44 117 -59 179 -177 179 -337 0
-185 -75 -301 -230 -360 -104 -39 -211 -50 -470 -50 l-244 0 0 412 0 411 268
-6 c201 -6 289 -12 357 -26z"/>
<path d="M26415 3861 c-611 -346 -663 -380 -702 -455 -19 -36 -31 -282 -15
-305 12 -17 119 38 517 264 143 82 265 148 270 148 21 0 498 -268 678 -381 66
-40 121 -71 123 -69 3 3 9 58 15 123 10 128 5 206 -17 241 -28 44 -759 464
-806 463 -7 0 -35 -13 -63 -29z"/>
<path d="M27789 3553 c-13 -34 -28 -408 -29 -698 l0 -210 -197 -110 c-241
-135 -462 -266 -526 -313 -47 -34 -48 -35 -30 -53 31 -30 277 -160 295 -155
10 2 188 102 398 222 l380 219 0 492 0 492 -82 49 c-100 60 -134 77 -171 86
-23 6 -29 3 -38 -21z"/>
<path d="M26410 3403 c-44 -26 -559 -333 -672 -400 l-58 -34 0 -479 0 -478
138 -84 137 -84 6 175 c4 97 10 304 14 461 l7 285 172 102 c94 55 285 165 424
244 l254 143 -174 87 c-95 49 -180 88 -188 88 -8 0 -35 -12 -60 -26z"/>
<path d="M26305 2868 c-22 -11 -86 -50 -143 -85 l-102 -65 2 -470 3 -470 140
-81 c77 -44 259 -148 405 -233 146 -84 270 -154 276 -156 15 -4 182 103 217
140 16 17 27 38 25 49 -7 36 -166 144 -510 343 l-197 114 -5 41 c-3 22 -8 168
-11 325 -8 385 -24 571 -49 570 -6 -1 -29 -10 -51 -22z"/>
<path d="M26489 2328 c-8 -14 -10 -60 -7 -140 5 -109 7 -122 34 -165 21 -34
54 -64 114 -104 176 -118 619 -359 660 -359 38 0 424 209 632 342 102 65 155
125 165 186 13 79 10 239 -5 254 -16 16 -64 -8 -387 -193 -127 -73 -270 -151
-318 -175 l-89 -43 -91 46 c-51 25 -189 100 -307 168 -193 110 -371 205 -384
205 -3 0 -11 -10 -17 -22z"/>
</g>
</svg>
